<svg id="Layer_1" data-name="Layer 1" xmlns="http://www.w3.org/2000/svg" viewBox="0 0 122.88 112.14"><title>grocery-store</title><path d="M31.21,63.63a1.92,1.92,0,0,1,0-3.84H34A8.93,8.93,0,0,1,38.66,61a7.33,7.33,0,0,1,3.12,4.43.18.18,0,0,0,0,.15l.48,2h1.1v-7.9a1.94,1.94,0,0,1,1.93-1.93H55.48a1.94,1.94,0,0,1,1.93,1.93v4.69a8.69,8.69,0,0,1,6.17-2.58,8.54,8.54,0,0,1,3,.53,10.47,10.47,0,0,1,17.92,5.26h.47a1.9,1.9,0,0,1,1.89,1.9,2.33,2.33,0,0,1-.09.58l-5,20a1.88,1.88,0,0,1-1.85,1.46H48.74C49.42,94,50.11,95.38,51,96c1.12.73,3.07.78,6.33.73H79.42a1.9,1.9,0,0,1,0,3.8h-22c-4,0-6.53,0-8.52-1.37s-3.12-3.7-4.19-7.94h0L38.17,66.55s0,0,0-.09a3.43,3.43,0,0,0-1.46-2.19A5,5,0,0,0,34,63.63H31.21Zm83.35-11v53a6.52,6.52,0,0,1-6.51,6.51H14.83a6.5,6.5,0,0,1-4.6-1.92h0a6.49,6.49,0,0,1-1.91-4.6V52.7a28.35,28.35,0,0,0,5.86.35v52.09a1.12,1.12,0,0,0,.33.8h0a1.12,1.12,0,0,0,.8.32H48.7a4.68,4.68,0,0,1,4.52-3.48h0a4.69,4.69,0,0,1,4.53,3.48H69.2a4.68,4.68,0,0,1,4.52-3.48h0a4.68,4.68,0,0,1,4.53,3.48h29.32a1.13,1.13,0,0,0,1.13-1.13V52.8a26.73,26.73,0,0,0,5.86-.16ZM68.81,75.34a1.35,1.35,0,0,1,2.65,0v7.35a1.35,1.35,0,0,1-2.65,0V75.34Zm-7.94,0a1.35,1.35,0,0,1,2.65,0v7.35a1.35,1.35,0,0,1-2.65,0V75.34Zm-7.93,0a1.35,1.35,0,0,1,2.65,0v7.35a1.35,1.35,0,0,1-2.65,0V75.34ZM69.36,64a9.27,9.27,0,0,1,2.48,3.57h9.29A7.18,7.18,0,0,0,69.36,64Zm3.11,7.37H43.39l4.33,16.31H78.45l4-16.31ZM55.2,67.53c0-.13.11-.27.17-.4V61.07a1.4,1.4,0,0,0-1.4-1.4H47a1.4,1.4,0,0,0-1.4,1.4v6.46ZM106.09,46.4c-1.25-.59-4.33-1.39-5.3-2.35a12.25,12.25,0,0,1-2.12-2.88,12.25,12.25,0,0,1-2.12,2.88c-2.14,2.13-7,3.46-10.29,3.46S78.11,46.18,76,44.05a12.25,12.25,0,0,1-2.12-2.88,12.25,12.25,0,0,1-2.12,2.88c-2.14,2.13-7,3.46-10.29,3.46s-8.15-1.33-10.29-3.46A12.25,12.25,0,0,1,49,41.17a12.25,12.25,0,0,1-2.12,2.88c-2.14,2.13-7,3.46-10.29,3.46s-8.15-1.33-10.29-3.46a12.25,12.25,0,0,1-2.12-2.88,12.25,12.25,0,0,1-2.12,2.88c-1.41,1.4-5.12,2.46-7.08,3-3.95.48-8.61-.09-11.54-3A11.77,11.77,0,0,1,0,35.71V31.07H0a1.44,1.44,0,0,1,.17-.66L8.49,3.76C9.17,1.57,10.84.16,14.07,0h94.09c2.9.31,4.79,1.53,5.57,3.74l9,26.62a1.35,1.35,0,0,1,.19.63h0a.71.71,0,0,1,0,.14v4.58a11.77,11.77,0,0,1-3.47,8.34c-3.48,3.48-8.78,3.39-13.32,2.35Z"/></svg>