<svg id="Layer_1" data-name="Layer 1" xmlns="http://www.w3.org/2000/svg" viewBox="0 0 105.31 122.88"><defs><style>.cls-1{fill:#ffe256;fill-rule:evenodd;}</style></defs><title>bag-merchandise</title><path d="M43.21,29.28H62.1c-1,1.8-2,1.93-2,4.13a12.47,12.47,0,0,0,.2,2.22H44a13.57,13.57,0,0,0,.19-2.22,6,6,0,0,0-1-4.13Zm9.44,22.47a17.38,17.38,0,1,1-12.27,5.09,17.31,17.31,0,0,1,12.27-5.09ZM32.53,27.58V24.23h0A19.38,19.38,0,0,1,51.81,4.93h0A19.38,19.38,0,0,1,71.14,24.22h0v3.49a5.89,5.89,0,1,0,5,.59V24.22h0A24.28,24.28,0,0,0,51.86,0h0a24.29,24.29,0,0,0-24.2,24.22h0V28.6a5.89,5.89,0,1,0,4.92-1Zm-20.19,1.7H19.7c-1,1.8-3.48,2.9-3.48,5.1a12.5,12.5,0,0,0,.19,2.23h-5.1L5.07,118h95.18L94,36.61H87.37a12.58,12.58,0,0,0,.19-2.23c0-2.2-2.51-3.28-3.48-5.1H93a5.57,5.57,0,0,1,4,1.66,5.91,5.91,0,0,1,1.72,3.77l6.61,82.15c0,.18,0,.32,0,.4a5.73,5.73,0,0,1-5.32,5.6l-.41,0H5.73l-.41,0A5.71,5.71,0,0,1,0,117.24c0-.07,0-.2,0-.39L6.63,34.7a6,6,0,0,1,1.72-3.77,5.68,5.68,0,0,1,4-1.65Zm29,71.72a2.81,2.81,0,0,1,0-5.61H64A2.81,2.81,0,0,1,64,101Z"/><path class="cls-1" d="M52.65,56.61a12.5,12.5,0,1,1-12.5,12.5,12.5,12.5,0,0,1,12.5-12.5Z"/></svg>