<?xml version="1.0" encoding="utf-8"?><svg version="1.1" id="Layer_1" xmlns="http://www.w3.org/2000/svg" xmlns:xlink="http://www.w3.org/1999/xlink" x="0px" y="0px" viewBox="0 0 122.88 115.49" style="enable-background:new 0 0 122.88 115.49" xml:space="preserve"><style type="text/css">.st0{fill-rule:evenodd;clip-rule:evenodd;}</style><g><path class="st0" d="M39.54,70.85l8.78,25.83l4.42-15.33l-2.17-2.37c-0.98-1.42-1.19-2.67-0.65-3.74c1.17-2.32,3.6-1.89,5.87-1.89 c2.38,0,5.31-0.45,6.05,2.52c0.25,0.99-0.06,2.04-0.76,3.11l-2.17,2.37l4.42,15.33l7.95-25.83c1.71,1.53,4.4,2.7,7.52,3.68 c0.47-0.56,0.97-1.11,1.49-1.63c4.51-4.51,10.75-7.31,17.64-7.31c6.89,0,13.12,2.79,17.64,7.31c4.51,4.51,7.31,10.75,7.31,17.64 s-2.79,13.12-7.31,17.64c-4.51,4.51-10.75,7.31-17.64,7.31c-5.22,0-10.07-1.61-14.08-4.35H55.83H6.07 c-3.81-0.29-5.75-2.26-6.07-5.67c0.97-6.57,1.24-15.16,5.24-20.45c1.45-1.92,3.26-3.34,5.26-4.45 C16.82,77.04,33.8,76.01,39.54,70.85L39.54,70.85z M85.74,83.48l5.07-5.07c0.33-0.33,0.87-0.33,1.21,0l6.15,6.15l6.15-6.15 c0.33-0.33,0.87-0.33,1.21,0l5.07,5.07c0.33,0.33,0.33,0.87,0,1.21l-6.15,6.15l6.15,6.15c0.33,0.33,0.33,0.87,0,1.21l-5.07,5.07 c-0.33,0.33-0.87,0.33-1.21,0l-6.15-6.15l-6.15,6.15c-0.33,0.33-0.87,0.33-1.21,0l-5.07-5.07c-0.33-0.33-0.33-0.87,0-1.21 l6.15-6.15l-6.15-6.15C85.41,84.35,85.41,83.81,85.74,83.48L85.74,83.48z M112.96,75.52c-3.84-3.84-9.15-6.22-15.02-6.22 c-5.87,0-11.18,2.38-15.02,6.22c-3.84,3.84-6.22,9.15-6.22,15.02c0,5.87,2.38,11.18,6.22,15.02c3.84,3.84,9.15,6.22,15.02,6.22 c5.87,0,11.18-2.38,15.02-6.22c3.84-3.84,6.22-9.15,6.22-15.02C119.18,84.67,116.8,79.36,112.96,75.52L112.96,75.52z M35.32,33.91 c0.68,0.19,1.38,0.21,2.11,0.06l-1.25-9.91c0.64-2.45,1.62-4.36,2.92-5.76c1.36-1.46,3.06-2.37,5.09-2.76 c2.69-0.19,3.5,1.77,6.19,3.49c8.18,5.23,15.1,6.99,25.21,7.12l-1.25,6.32c-0.17,0.26-0.26,0.58-0.23,0.91 c0,0.05,0.01,0.1,0.02,0.16l-0.18,0.9c0.28,0.02,0.55,0.03,0.82,0.02c0.25,0.15,0.55,0.23,0.87,0.2c1.76-0.16,2.83,0,3.12,0.59 c0.4,0.8,0.06,2.43-1.09,5.05l-5.53,9.11c-2.06,3.39-4.14,6.78-6.79,9.25c-2.54,2.38-5.67,3.96-9.94,3.95 c-3.95-0.01-6.93-1.53-9.4-3.78c-2.56-2.34-4.63-5.53-6.59-8.66l-4.91-7.81l0,0l-0.02-0.03c-1.51-2.25-2.29-4.19-2.33-5.68 c-0.01-0.5,0.06-0.94,0.23-1.3c0.15-0.32,0.38-0.59,0.7-0.81C33.62,34.19,34.36,33.98,35.32,33.91L35.32,33.91z M78.98,32.1 l0.31-12.72c-0.37-5.17-2.08-9.08-4.81-12.03c-6.69-7.24-19.19-9.1-28.62-5.69c-1.59,0.57-3.09,1.3-4.46,2.17 C37.5,6.31,34.36,9.91,33.1,14.4c-0.3,1.06-0.5,2.12-0.61,3.18c-0.21,4.46-0.09,9.78,0.23,14.01c-0.44,0.17-0.84,0.37-1.2,0.61 c-0.76,0.51-1.33,1.18-1.7,1.97c-0.35,0.76-0.51,1.62-0.48,2.57c0.06,2.01,0.99,4.47,2.79,7.15l4.91,7.8 c2.07,3.28,4.24,6.64,7.08,9.24c2.94,2.69,6.53,4.51,11.3,4.53c5.11,0.01,8.84-1.88,11.87-4.71c2.92-2.74,5.12-6.3,7.27-9.85 l5.59-9.21c0.03-0.05,0.06-0.11,0.08-0.16l0,0c1.53-3.47,1.86-5.89,1.06-7.49C80.84,33.05,80.06,32.43,78.98,32.1L78.98,32.1z"/></g></svg>