<?xml version="1.0" encoding="utf-8"?><svg version="1.1" id="Layer_1" xmlns="http://www.w3.org/2000/svg" xmlns:xlink="http://www.w3.org/1999/xlink" x="0px" y="0px" viewBox="0 0 122.88 101.46" style="enable-background:new 0 0 122.88 101.46" xml:space="preserve"><style type="text/css">.st0{fill-rule:evenodd;clip-rule:evenodd;}</style><g><path class="st0" d="M85.07,83.72l2.48-8.59l-1.21-1.33c-0.55-0.8-0.67-1.5-0.36-2.1c0.66-1.3,2.02-1.06,3.29-1.06 c1.33,0,2.97-0.25,3.39,1.41c0.14,0.56-0.04,1.14-0.43,1.74l-1.21,1.33l2.48,8.59l-4.21,3.32L85.07,83.72L85.07,83.72z M33.94,64.98c-2.08-2.37-2.26-4.85,0-7.47c2.61,0.66,5,1.79,7.2,3.32c0.48-0.21,1.03-0.29,1.57-0.26c2.29-1.62,5.21-2.28,7.76-3.5 c3.05,2.97,2.72,5.7-0.28,8.24c-1.67-0.38-3.27-0.98-4.79-1.75c-0.04,0.39-0.14,0.82-0.33,1.29l0.78,6.48h-6.22l0.78-6.48 c-0.49-0.82-0.67-1.52-0.65-2.11C37.96,63.82,35.99,64.52,33.94,64.98L33.94,64.98z M25.64,30.37c-0.91,0.04-1.61,0.23-2.08,0.54 c-0.27,0.18-0.47,0.41-0.6,0.69c-0.14,0.31-0.21,0.68-0.2,1.11c0.04,1.26,0.69,2.9,1.97,4.79l0.02,0.03l0,0l4.13,6.56 c1.66,2.63,3.39,5.31,5.55,7.29c2.07,1.9,4.59,3.18,7.91,3.19c3.6,0.01,6.24-1.32,8.38-3.33c2.22-2.08,3.98-4.94,5.71-7.78 l4.65-7.66c0.87-1.98,1.18-3.3,0.98-4.08c-0.12-0.46-0.63-0.69-1.5-0.73c-0.18-0.01-0.37-0.01-0.57-0.01 c-0.21,0.01-0.42,0.02-0.65,0.04c-0.12,0.01-0.24,0-0.36-0.02c-0.41,0.02-0.84-0.01-1.28-0.07l1.59-7.05 c-11.81,1.86-20.65-6.91-33.14-1.75l0.9,8.31C26.56,30.45,26.08,30.44,25.64,30.37L25.64,30.37L25.64,30.37z M31.12,59.67 c-0.08,0.11-0.18,0.21-0.29,0.29c0.39,3.15,0.94,7.19,1.59,11.37H7.86c-1.76,0-3.19,1.65-2.92,3.66l3.41,25.85H5.23 c-2.87-0.22-4.33-1.7-4.58-4.28c0.14-11.55-4.25-25.52,7.92-32.3c4.45-2.49,15.94-3.33,20.95-6.61c0.73-1.38,1.54-3.79,2.05-5.35 l0.07-0.21l0,0l-0.07,0.21c-0.04,0.11,0.1-0.31,0.07-0.21l0,0l0.05-0.15c-1.84-1.98-3.35-4.31-4.79-6.61l-4.13-6.56 c-1.51-2.25-2.29-4.31-2.34-6c-0.02-0.79,0.11-1.52,0.41-2.15c0.31-0.66,0.78-1.22,1.42-1.65c0.3-0.2,0.63-0.37,1-0.51 c-0.27-3.56-0.37-8.05-0.19-11.8c0.09-0.89,0.26-1.78,0.51-2.67c1.51-5.4,6.15-9.29,11.45-11.12c2.57-0.89,1.58-3.01,4.18-2.86 c6.16,0.34,15.67,4.31,19.32,8.52c5.12,5.9,3.8,13.17,3.63,20.37v0c1.14,0.35,1.88,1.07,2.18,2.25c0.33,1.3-0.03,3.14-1.13,5.64 l0,0c-0.02,0.05-0.04,0.09-0.07,0.13l-4.7,7.75c-1.81,2.99-3.65,5.98-6.11,8.28l-0.12,0.11c0.23,0.34,0.49,0.71,0.76,1.1 c0.82,1.2,1.75,2.56,2.61,3.63c5.11,3.18,16.36,4.03,20.75,6.49c1.05,0.59,1.97,1.25,2.77,1.98c0.68-0.6,1.33-1.18,1.85-1.66 c-0.24-0.27-0.48-0.55-0.72-0.82l-2.26-2.63l-1.68,0.04l-3.2,0.08c-2.75-3.16-2.58-9.96-2.31-13.88 c1.28-7.88,4.33-13.56,9.29-16.84c3.36-2.22,5.37-2.35,9.3-2.35c3.43,0,5.53-0.08,8.46,1.85c9.53,6.28,12.49,21.09,7.83,31.07 h-3.33l-0.21,0.25l-0.3,0.35l-1.45,1.74c-0.58,0.69-1.16,1.39-1.79,2.04c0.8,0.78,1.88,1.73,2.87,2.6c0.47,0.41,0.92,0.8,1.32,1.16 c14.91,5.94,18.19,9.4,20.01,28.63c0.34,3.55,0.3,3.39-3.1,3.46c-12.59,0.25-28.64,0-43.16-0.06l0.06-0.45l3.41-25.85 c0.27-2.01-1.16-3.66-2.92-3.66h-1.28h-5.04H53.06c0.59-4.23,1.02-8.26,1.23-11.31c-1.12-1.24-2.32-3-3.34-4.51 c-0.23-0.33-0.45-0.66-0.66-0.96c-2.16,1.45-4.73,2.34-7.95,2.34c-3.59-0.01-6.38-1.24-8.7-3.12 C32.99,55.72,32.04,58.39,31.12,59.67L31.12,59.67z M80.09,67.28c5.05,5.75,4.26,14.82,4.06,23.02l5.13,8.52l12.5-20.74l5.43,0.13 c-1.26-2.54-2.76-4.81-4.44-6.94c-0.45-0.46-1.34-1.24-2.3-2.08c-1.03-0.9-2.14-1.88-2.97-2.69c-0.34,0.29-0.69,0.57-1.07,0.82 c-1.62,1.11-3.63,1.85-6.36,1.84c-2.56,0-4.48-0.72-6.06-1.77c-0.78-0.52-1.47-1.12-2.1-1.75C81.37,66.14,80.74,66.7,80.09,67.28 L80.09,67.28z M42.11,84.99c2.43,0,4.39,1.97,4.39,4.39c0,2.43-1.97,4.39-4.39,4.39c-2.43,0-4.39-1.97-4.39-4.39 C37.72,86.96,39.68,84.99,42.11,84.99L42.11,84.99z M78.57,59.97c-2.66-9.11-1.41-17.48,5.76-24.64c1.27,4.1,4.11,7.48,8.94,9.98 c2.31,1.72,4.54,3.79,6.71,6.17c0.38-1.58-1.08-3.5-2.85-5.48c1.64,0.81,3.15,1.94,4.22,4.13c1.24,2.53,1.22,4.67,0.81,7.42 c-0.13,0.85-0.31,1.65-0.54,2.42c-0.07,0.04-0.14,0.09-0.19,0.15c-0.2,0.24-0.39,0.47-0.57,0.68c-0.07,0.08-0.13,0.15-0.3,0.36 L99.1,62.9c-1.11,1.33-2.23,2.67-3.66,3.64c-1.37,0.94-3.06,1.56-5.38,1.56c-2.13,0-3.75-0.61-5.08-1.49 c-1.38-0.92-2.49-2.18-3.55-3.41l-2.64-3.07C78.73,60.07,78.65,60.01,78.57,59.97L78.57,59.97z"/></g></svg>