<svg id="Layer_1" data-name="Layer 1" xmlns="http://www.w3.org/2000/svg" viewBox="0 0 122.88 114.11"><title>office-worker</title><path d="M34.24,43.4c.59-1.65,1.42-2.46,2.48-2.75-.38-7.2.8-18.52-6.56-20.75,14.6-18,31.42-27.84,44.05-11.8C88.72,8.86,94.94,30.89,85,41.76a4.47,4.47,0,0,1,2.25.47,3.55,3.55,0,0,1,1.73,2.11A6.38,6.38,0,0,1,88.85,48L87,53.33a3.88,3.88,0,0,1-1.21,2,3.5,3.5,0,0,1-2.57.63,4.78,4.78,0,0,1-.53-.06c-.12,6-3.06,8.76-6.9,12.37l-1.47,1.4c-3.89,3.75-8.14,5.57-12.46,5.57S53,73.33,48.94,69.69l-1.45-1.25c-3.76-3.24-6.9-5.95-7.5-12.55h-.34a4.6,4.6,0,0,1-2.21-.59,6,6,0,0,1-2.43-3,13.57,13.57,0,0,1-1-4.44c0-.46,0-1.38,0-2.26s.06-1.49.12-1.91a1.39,1.39,0,0,1,.09-.35ZM44.8,75.1,54,99.29,58.64,86.1l-2.27-2.48q-1.53-2.24-.68-3.92c1.23-2.43,3.77-2,6.15-2s5.57-.47,6.35,2.64a4.15,4.15,0,0,1-.8,3.26L65.12,86.1l4.63,13.19L78.08,75.1c6,5.41,27.18,6.5,33.8,10.19A17.51,17.51,0,0,1,117.39,90c3.79,5,4.11,12.09,5.49,18.22-.34,3.58-2.37,5.64-6.36,5.94H6.36c-4-.3-6-2.37-6.36-5.94C1.38,102,1.71,95,5.49,90A17.15,17.15,0,0,1,11,85.29c8.14-4.53,27.14-4.19,33.8-10.19ZM72.26,21.6c-7.38,7.49-16.62,5.18-23.13,8.13-.38.23-.77.49-1.17.76a10.56,10.56,0,0,0-4.18,5.22,13.12,13.12,0,0,0-.17,7.14,1.49,1.49,0,0,1,0,.86,1.45,1.45,0,0,1-1.86.87l-.42-.16,0,.22-.74-.49-.14,0c-1.72-.6-2.93-.88-3.39.2,0,.35-.07.88-.08,1.44,0,.79,0,1.62,0,2a10.53,10.53,0,0,0,.75,3.45,3.28,3.28,0,0,0,1.2,1.58,1.78,1.78,0,0,0,.82.21,4.05,4.05,0,0,0,1.18-.2,1.56,1.56,0,0,1,.43-.08,1.46,1.46,0,0,1,1.48,1.41c.16,6.56,3.07,9.06,6.61,12.11l1.47,1.28c3.55,3.16,7.29,4.79,11,4.79S69,70.77,72.27,67.56c.53-.52,1-1,1.5-1.42,3.71-3.49,6.44-6.06,5.92-12.31a1.44,1.44,0,0,1,2.24-1.33,4.2,4.2,0,0,0,.72.38l0,0a2.18,2.18,0,0,0,.63.14A2.54,2.54,0,0,0,84,53a2.94,2.94,0,0,0,.28-.67l1.84-5.22a3.57,3.57,0,0,0,.11-1.93.7.7,0,0,0-.33-.44,1.78,1.78,0,0,0-.91-.12,5.11,5.11,0,0,0-2.59,1.09,1.46,1.46,0,0,1-1.12.27,1.45,1.45,0,0,1-1.18-1.67c1.36-8,.74-13.15-1-16.68a14.19,14.19,0,0,0-6.42-6.38l-.41.31ZM57,37.12c1.45.54,1.76,1.76.95,2.22s-2.17-.26-3.1-.56c-2.44-.78-5.34-.87-7.44.44a11.68,11.68,0,0,0-1.71,1.36,5.78,5.78,0,0,1,1-2.09c2.11-2.67,7.43-2.82,10.26-1.37Zm9.19,0c-1.45.54-1.76,1.76-1,2.22s2.17-.26,3.1-.56c2.44-.78,5.33-.87,7.44.44a11.68,11.68,0,0,1,1.71,1.36,5.78,5.78,0,0,0-1-2.09c-2.11-2.67-7.43-2.82-10.26-1.37ZM49.4,42.34a.59.59,0,0,1-.77-.42.71.71,0,0,1,.38-.87,10,10,0,0,1,7.26,0,.69.69,0,0,1,.39.85.57.57,0,0,1-.74.44q-.6-.21-1.2-.36a1.74,1.74,0,0,1,.06.45,1.69,1.69,0,1,1-3.37,0,1.66,1.66,0,0,1,.13-.64,8.76,8.76,0,0,0-2.14.55Zm19.51-.5a1.87,1.87,0,0,0-.11.59,1.69,1.69,0,1,0,3.37,0,1.56,1.56,0,0,0-.18-.74,10.41,10.41,0,0,1,2.22.49.59.59,0,0,0,.74-.47.71.71,0,0,0-.41-.85,11.83,11.83,0,0,0-3.63-.59,11.13,11.13,0,0,0-3.59.6.71.71,0,0,0-.41.85.6.6,0,0,0,.74.46,10.27,10.27,0,0,1,1.26-.34Zm-9.6,14.59a.94.94,0,0,1-.12-1.31A.93.93,0,0,1,60.5,55a2.1,2.1,0,0,0,1.33.59,2.16,2.16,0,0,0,1.39-.6.91.91,0,0,1,1.29.12.92.92,0,0,1-.12,1.3,4,4,0,0,1-2.59,1,3.79,3.79,0,0,1-2.49-1Zm-2.89,6.75a1,1,0,0,1-.4-1.31,1,1,0,0,1,1.31-.4,9.34,9.34,0,0,0,4.42,1.2,9,9,0,0,0,4.36-1.19,1,1,0,1,1,.94,1.7,10.64,10.64,0,0,1-5.29,1.43,11.5,11.5,0,0,1-5.34-1.43Z"/></svg>