<svg id="Layer_1" data-name="Layer 1" xmlns="http://www.w3.org/2000/svg" viewBox="0 0 122.88 85.95"><title>exit-button</title><path d="M18.15,0h86.58a18.2,18.2,0,0,1,18.15,18.15V67.79A18.23,18.23,0,0,1,104.72,86H18.15A18.22,18.22,0,0,1,0,67.8V18.15A18.2,18.2,0,0,1,18.15,0ZM28.53,26.68H47.39v4.87H35.6v3.63H46.53v4.65H35.6v4.49H47.74v5.16H28.53V26.68ZM49.69,33h7.52l2.62,4.61L62.88,33h7l-5.62,7.88,6,8.65H62.88l-3.05-5.32-3.61,5.32H49.37l6-8.65L49.69,33Zm22.9-6.27h6.34V31H72.59v-4.3Zm0,6.27h6.34V49.48H72.59V33Zm18-6.27V33h3.47V37.6H90.62v5.85a3.26,3.26,0,0,0,.2,1.4,1.17,1.17,0,0,0,1.1.53,7,7,0,0,0,2-.41l.47,4.38a20.2,20.2,0,0,1-4.39.52,7.7,7.7,0,0,1-3.49-.61,3.72,3.72,0,0,1-1.65-1.84,10.76,10.76,0,0,1-.54-4V37.6H82V33h2.32v-3l6.34-3.24ZM3.9,61.07A14.84,14.84,0,0,0,18.16,72h87.08l1-.07A14.78,14.78,0,0,0,119,61.07V18.15A14.31,14.31,0,0,0,104.76,3.9H18.15A14.31,14.31,0,0,0,3.9,18.15V61.07Z"/></svg>