<svg id="Layer_1" data-name="Layer 1" xmlns="http://www.w3.org/2000/svg" viewBox="0 0 122.88 122.25"><defs><style>.cls-1{fill-rule:evenodd;}</style></defs><title>individual</title><path class="cls-1" d="M52.25,67.77H68.64c1.52-.06,1.92.74,1.41,1.85-4.39,9.89-18.83,5-19-.14a1.52,1.52,0,0,1,1.22-1.71Zm21.56,9a1.8,1.8,0,0,1,.2-.19l.59-.56c4.15-3.9,7.21-6.77,6.62-13.77h0a1.63,1.63,0,0,1,2.51-1.49,4.2,4.2,0,0,0,.86.45,2.8,2.8,0,0,0,.7.16,3.35,3.35,0,0,0,.71,0,3.56,3.56,0,0,0,.3-.76l2.06-5.84a4.06,4.06,0,0,0,.13-2.16.75.75,0,0,0-.37-.48,1.85,1.85,0,0,0-1-.15,5.8,5.8,0,0,0-2.88,1.21,1.62,1.62,0,0,1-2.59-1.55C83.15,42.76,82.45,37,80.56,33a16,16,0,0,0-7.19-7.14C67,30.75,62.49,31.3,58,31.86c-3.7.46-7.4.91-12.3,4.3A11.82,11.82,0,0,0,41,42a14.62,14.62,0,0,0-.2,8,1.7,1.7,0,0,1,0,1,1.63,1.63,0,0,1-2.08,1l-.23-.09-1.25-.45c-1.92-.67-3.28-1-3.8.22,0,.39-.07,1-.09,1.61,0,.88,0,1.79,0,2.26v0a11.79,11.79,0,0,0,.84,3.86,3.7,3.7,0,0,0,1.35,1.77,1.92,1.92,0,0,0,.91.23,4.4,4.4,0,0,0,1.33-.22,1.86,1.86,0,0,1,.48-.09,1.62,1.62,0,0,1,1.66,1.58c.17,7.34,3.43,10.14,7.39,13.55.6.52,1.23,1.06,1.65,1.44a21.71,21.71,0,0,0,8,4.71,19,19,0,0,0,6.33.2,19.67,19.67,0,0,0,4.15-1,20.54,20.54,0,0,0,5.48-3.88l.89-.85Zm3,1.59c3.36,11.38,11.49,13.15,19.4,14.87,10.87,2.37,26.64,4.1,26.64,22.06v5.3a1.63,1.63,0,0,1-1.62,1.63H1.62A1.63,1.63,0,0,1,0,120.62v-4.79C0,96.72,15.53,95.76,27,94c8.27-1.24,16.7-2.5,20-13.83L46.8,80c-.68-.61-1.15-1-1.61-1.41C41,75,37.46,72,36.79,64.59h-.37a5.08,5.08,0,0,1-2.48-.65,6.75,6.75,0,0,1-2.73-3.3,15.15,15.15,0,0,1-1.09-5v0c0-.52,0-1.53,0-2.5h0c0-.84.07-1.66.13-2.13a1.6,1.6,0,0,1,.11-.39c.88-2.46,2.23-3.26,4-3.21l-1.17-.78c-.64-7.95,1.23-21.74-7.41-24.35C42.13,2.09,61-8.89,75.09,9.07,92.12,10,99,37,85.36,48.41c0,.22,0,.45-.08.67a7.69,7.69,0,0,1,1.58-.3,5.09,5.09,0,0,1,2.78.52,3.92,3.92,0,0,1,1.93,2.35,7.07,7.07,0,0,1-.09,4,.84.84,0,0,1,0,.17l-2.07,5.86A4.43,4.43,0,0,1,88,63.93a5.05,5.05,0,0,1-3.47.63c-.14,6.71-3.41,9.8-7.7,13.83Zm-37.39,16a39.72,39.72,0,0,0,21.85,5.72,38.13,38.13,0,0,0,22.17-7.55c-3.78-2.14-7-5.5-9.13-11.33a17.28,17.28,0,0,1-5.52,3.28,17.62,17.62,0,0,1-7.6,1.75,17.94,17.94,0,0,1-5.1-.75,18.33,18.33,0,0,1-5.67-2.23c-.29-.18-.57-.36-.85-.56-2.21,6.39-5.86,9.73-10.15,11.67Zm7.78-41.72-.07,0a.89.89,0,0,1-.68-.08A1,1,0,0,1,46,52L46,52a1.16,1.16,0,0,1,0-.78v0a1.06,1.06,0,0,1,.55-.53,11.51,11.51,0,0,1,2-.57,10.64,10.64,0,0,1,2-.18,11.4,11.4,0,0,1,2,.19,12.18,12.18,0,0,1,2,.56h0a1.05,1.05,0,0,1,.54.52,1.15,1.15,0,0,1,.06.78l0,.1a1,1,0,0,1-.43.52.87.87,0,0,1-.69.08l-.09,0-.61-.2-.17,0v0a2.14,2.14,0,0,1-3.65,1.51l0,0A2.12,2.12,0,0,1,49,52.4a1.45,1.45,0,0,1,0-.3,4.56,4.56,0,0,0-.64.14,7.68,7.68,0,0,0-1.12.36l0,0Zm11,11.17a1.19,1.19,0,0,1-.14-1.66,1.17,1.17,0,0,1,.81-.43,1.21,1.21,0,0,1,.86.28,2.11,2.11,0,0,0,.58.33,1.85,1.85,0,0,0,.63.14,2,2,0,0,0,.66-.13,2.46,2.46,0,0,0,.59-.33l0,0a1.23,1.23,0,0,1,.84-.25,1.2,1.2,0,0,1,.78.41l0,0a1.21,1.21,0,0,1,.24.85,1.13,1.13,0,0,1-.43.8,4.53,4.53,0,0,1-1.33.75,4,4,0,0,1-1.46.27,4.76,4.76,0,0,1-1.44-.28,4.67,4.67,0,0,1-1.27-.75Zm9.55-11.36a1.62,1.62,0,0,1,0-.22l-.17,0c-.22.06-.44.12-.67.2l-.06,0a.91.91,0,0,1-.7-.11,1.07,1.07,0,0,1-.43-.56l0-.08a1.1,1.1,0,0,1,.08-.78,1,1,0,0,1,.57-.51,14,14,0,0,1,2-.5,12.64,12.64,0,0,1,4,0,14.75,14.75,0,0,1,2,.5,1,1,0,0,1,.58.51,1.19,1.19,0,0,1,.08.77l0,.08a1.1,1.1,0,0,1-.43.57.9.9,0,0,1-.7.11l-.06,0c-.39-.13-.79-.23-1.17-.32L72,52a2,2,0,0,1,0,.42,2.14,2.14,0,0,1-.61,1.49h0a2.1,2.1,0,0,1-1.5.63,2.12,2.12,0,0,1-1.51-.63,2.1,2.1,0,0,1-.63-1.5ZM52.79,43.29a1.3,1.3,0,0,1,1,.36,1.29,1.29,0,0,1,.44.93h0A1.35,1.35,0,0,1,52.91,46a11.66,11.66,0,0,0-2.14.28A9.18,9.18,0,0,0,49,46.9a7.36,7.36,0,0,0-1.44.92,7.14,7.14,0,0,0-1.15,1.24h0a1.32,1.32,0,0,1-.89.53,1.35,1.35,0,0,1-1-.25h0a1.35,1.35,0,0,1-.52-.88,1.31,1.31,0,0,1,.25-1h0a9.86,9.86,0,0,1,1.6-1.69,9.73,9.73,0,0,1,2-1.28,11.65,11.65,0,0,1,2.31-.81,13.85,13.85,0,0,1,2.68-.38ZM69,45.78a1.38,1.38,0,0,1-.92-.39,1.4,1.4,0,0,1-.4-1,1.38,1.38,0,0,1,.4-1,1.32,1.32,0,0,1,1-.38,12,12,0,0,1,2.51.25,11.61,11.61,0,0,1,2.29.76,10.47,10.47,0,0,1,2.06,1.29,11.36,11.36,0,0,1,1.76,1.83,1.36,1.36,0,0,1,.27,1,1.32,1.32,0,0,1-.52.9,1.34,1.34,0,0,1-1,.26,1.28,1.28,0,0,1-.89-.51,8.21,8.21,0,0,0-1.32-1.37,7.12,7.12,0,0,0-1.5-1A8.08,8.08,0,0,0,71,46a9.92,9.92,0,0,0-1.92-.19ZM54.25,71.27l-.74-1.92H67.75l-.64,1.92Z"/></svg>