<?xml version="1.0" encoding="utf-8"?><svg version="1.1" id="Layer_1" xmlns="http://www.w3.org/2000/svg" xmlns:xlink="http://www.w3.org/1999/xlink" x="0px" y="0px" viewBox="0 0 113.02 122.88" style="enable-background:new 0 0 113.02 122.88" xml:space="preserve"><style type="text/css"><![CDATA[
	.st0{fill-rule:evenodd;clip-rule:evenodd;}
]]></style><g><path class="st0" d="M70.12,40.96l2.86,2.86c0.75,0.75,0.75,1.99,0,2.74l-2.31,2.31c0.64,1.19,1.12,2.47,1.43,3.81h2.99 c1.07,0,1.94,0.87,1.94,1.94v4.05c0,1.07-0.87,1.94-1.94,1.94h-3.26c-0.4,1.32-0.97,2.56-1.69,3.71l2.11,2.11 c0.75,0.75,0.75,1.99,0,2.74l-2.86,2.86c-0.75,0.75-1.99,0.75-2.74,0l-2.3-2.3c-1.19,0.64-2.47,1.12-3.82,1.43v2.99 c0,1.07-0.87,1.94-1.94,1.94h-4.05c-1.07,0-1.94-0.87-1.94-1.94v-3.26c-1.32-0.4-2.56-0.97-3.71-1.69L46.8,71.3 c-0.75,0.75-1.99,0.75-2.74,0l-2.86-2.86c-0.75-0.75-0.75-1.99,0-2.74l2.3-2.3c-0.64-1.19-1.12-2.47-1.43-3.81h-2.99 c-1.06,0-1.94-0.87-1.94-1.94v-4.05c0-1.07,0.87-1.94,1.94-1.94h3.26c0.4-1.32,0.97-2.56,1.69-3.71l-2.11-2.11 c-0.75-0.75-0.75-1.99,0-2.74l2.86-2.86c0.75-0.75,1.99-0.75,2.74,0l2.31,2.31c1.19-0.64,2.47-1.12,3.81-1.43v-2.99 c0-1.07,0.87-1.94,1.94-1.94h4.05c1.07,0,1.94,0.87,1.94,1.94v3.26c1.32,0.4,2.56,0.97,3.71,1.69l2.11-2.11 C68.14,40.2,69.37,40.2,70.12,40.96L70.12,40.96L70.12,40.96z M44.13,102.07c-1.14,0.03-2.14-0.81-2.3-1.96 c-0.17-1.2,0.64-2.31,1.82-2.54c-1.3-7.37-4.85-11.43-8.6-15.72c-2.92-3.34-5.95-6.81-8.34-11.92c-2.35-5.03-3.64-10.23-3.6-15.63 c0.05-5.4,1.42-10.96,4.4-16.71c0.02-0.04,0.04-0.07,0.06-0.11l0,0c3.91-6.62,9.38-11.04,15.47-13.52c5.11-2.09,10.66-2.8,16.1-2.3 c5.42,0.5,10.73,2.2,15.37,4.94c5.9,3.49,10.75,8.67,13.42,15.21c1.44,3.54,2.42,7.49,2.54,11.82c0.12,4.31-0.62,8.96-2.61,13.88 c-2.66,6.59-6.18,10.68-9.47,14.51c-3.03,3.53-5.85,6.81-7.42,11.84c0.89,0.21,1.59,0.94,1.73,1.9c0.17,1.24-0.7,2.39-1.94,2.56 L70,98.43c-0.14,1.09-0.23,2.26-0.27,3.51l0.25-0.04c1.24-0.17,2.39,0.7,2.56,1.94c0.17,1.24-0.7,2.39-1.94,2.56l-0.78,0.11 c0.01,0.15,0.02,0.3,0.03,0.45l0,0c0.07,0.88,0.08,1.73,0.03,2.54l0.13-0.02c1.25-0.15,2.38,0.74,2.54,1.98 c0.15,1.25-0.74,2.38-1.98,2.54l-1.68,0.21c-1.2,3.11-3.34,5.48-5.87,6.94c-1.74,1.01-3.67,1.59-5.61,1.71 c-1.97,0.12-3.96-0.25-5.78-1.13c-2.08-1.02-3.94-2.71-5.29-5.14c-0.65-0.33-1.13-0.97-1.23-1.75c-0.04-0.31-0.01-0.61,0.07-0.89 c-0.39-1.16-0.68-2.43-0.87-3.83l-0.07,0.01c-1.24,0.17-2.39-0.7-2.56-1.94s0.7-2.39,1.94-2.56l0.54-0.08 C44.19,104.33,44.18,103.17,44.13,102.07L44.13,102.07L44.13,102.07z M2.18,58.86C1.01,58.89,0.04,57.98,0,56.81 c-0.04-1.17,0.88-2.14,2.05-2.18l8.7-0.3c1.17-0.04,2.14,0.88,2.18,2.05c0.04,1.17-0.88,2.14-2.05,2.18L2.18,58.86L2.18,58.86 L2.18,58.86z M110.69,50.25c1.16-0.12,2.2,0.73,2.32,1.89c0.12,1.16-0.73,2.2-1.89,2.32l-8.66,0.91c-1.16,0.12-2.2-0.73-2.32-1.89 c-0.12-1.16,0.73-2.2,1.89-2.32L110.69,50.25L110.69,50.25L110.69,50.25z M94.92,14.78c0.65-0.97,1.96-1.23,2.93-0.58 c0.97,0.65,1.23,1.96,0.58,2.93l-4.84,7.24c-0.65,0.97-1.96,1.23-2.93,0.58c-0.97-0.65-1.23-1.96-0.58-2.93L94.92,14.78 L94.92,14.78L94.92,14.78z M57.63,2.06c0.03-1.17,1-2.09,2.16-2.06c1.17,0.03,2.09,1,2.06,2.16l-0.22,8.7 c-0.03,1.17-1,2.09-2.16,2.06c-1.17-0.03-2.09-1-2.06-2.16L57.63,2.06L57.63,2.06L57.63,2.06z M13.88,15.53 c-0.86-0.8-0.9-2.14-0.11-2.99c0.8-0.86,2.14-0.9,2.99-0.11l6.37,5.94c0.86,0.8,0.9,2.14,0.11,2.99c-0.8,0.86-2.14,0.9-2.99,0.11 L13.88,15.53L13.88,15.53L13.88,15.53z M47.88,96.96l18.49-2.63c1.59-6.7,5.05-10.73,8.8-15.08c3.08-3.58,6.36-7.4,8.76-13.34 c1.76-4.35,2.41-8.43,2.31-12.19c-0.1-3.75-0.96-7.21-2.24-10.34c-2.3-5.63-6.51-10.11-11.65-13.15c-4.11-2.43-8.8-3.94-13.59-4.37 c-4.77-0.44-9.64,0.19-14.13,2.02c-5.26,2.15-9.99,5.97-13.39,11.72c-2.64,5.12-3.86,10.02-3.9,14.73 c-0.04,4.74,1.11,9.33,3.2,13.8c2.13,4.56,4.97,7.8,7.69,10.92C42.47,83.91,46.48,88.5,47.88,96.96L47.88,96.96L47.88,96.96z M65.62,99.03l-17.27,2.45c0.05,1.1,0.07,2.25,0.05,3.47l17.05-2.42C65.47,101.3,65.52,100.13,65.62,99.03L65.62,99.03L65.62,99.03 z M48.49,109.53c0.12,0.92,0.3,1.76,0.53,2.54l16.55-2.04c0.11-0.86,0.13-1.77,0.05-2.74l0,0v-0.02l-0.01-0.17L48.49,109.53 L48.49,109.53L48.49,109.53z M51.37,116.37c0.64,0.67,1.35,1.19,2.1,1.55c1.15,0.56,2.42,0.79,3.67,0.72 c1.29-0.08,2.57-0.47,3.74-1.15c1.1-0.64,2.09-1.53,2.88-2.65L51.37,116.37L51.37,116.37L51.37,116.37z M57.09,48.17 c4.39,0,7.96,3.56,7.96,7.96s-3.56,7.96-7.96,7.96s-7.96-3.56-7.96-7.96C49.13,51.73,52.7,48.17,57.09,48.17L57.09,48.17 L57.09,48.17z"/></g></svg>