<svg id="Layer_1" data-name="Layer 1" xmlns="http://www.w3.org/2000/svg" viewBox="0 0 122.88 118.34"><title>cash-on-delivery</title><path d="M29.82,7.46h0A2.54,2.54,0,0,0,27.24,10v5.76l-7.45,7.45V6.88A6.91,6.91,0,0,1,21.8,2h0a7,7,0,0,1,4.87-2H116a7,7,0,0,1,4.87,2h0a7.11,7.11,0,0,1,2,4.86V80.24c0,1.83-.45,3.94-2,4.87h0a6.92,6.92,0,0,1-4.86,2H61.68A22,22,0,0,0,60.06,82l2.4-2.39h50.45a2.54,2.54,0,0,0,2.52-2.53V10a2.54,2.54,0,0,0-2.54-2.54H99.09V33.89L84.51,26.6,70,33.89V7.46ZM9.34,77.7l-3.18,18a1.41,1.41,0,0,1-.3.64,7,7,0,0,0-1.61,3.28,1.82,1.82,0,0,0,.5,1.82L16.28,113a5.27,5.27,0,0,0,2.8,1.43,7.07,7.07,0,0,0,3.75.11l.09,0,2.17-.54c3.33-.81,6.23-1.53,8.93-4l3.46-3.61a1.15,1.15,0,0,1,.14-.17c.05,0,.39-.39.85-.82,2.36-2.32,5.3-5.18,3.51-7.68l-1.39-1.39c-.67.65-1.38,1.28-2.06,1.9s-1.21,1.06-1.75,1.6a1.46,1.46,0,0,1-2.07-2.07c.53-.54,1.2-1.13,1.88-1.74,2.35-2.06,5-4.43,3.59-6.5l-1.37-1.37-.2-.25c-.79.81-1.66,1.58-2.51,2.33-.62.55-1.2,1.06-1.74,1.6a1.47,1.47,0,0,1-2.07,0,1.45,1.45,0,0,1,0-2.07c.53-.54,1.2-1.13,1.88-1.73,2.35-2.07,5-4.44,3.59-6.51l-1.37-1.37a1.78,1.78,0,0,1-.24-.32l-4,4a1.46,1.46,0,0,1-2.07-2.07l7.55-7.55c1.81-1.81,2.22-3.69,1.75-5.12-.17-.52,0-.53-.38-.9a3.33,3.33,0,0,0-.63-.49h0c-.11,0-.19-.06-.3-.17a2.78,2.78,0,0,0-.4-.16c-1.25-.42-2.44.32-4.08,1.71l-.07.06c-.18.15-.36.31-.54.49L17.27,85.34a1.47,1.47,0,0,1-2.07,0,1.45,1.45,0,0,1-.14-1.91L9.34,77.7Zm9.46,1.08.51-.5L29.64,67.94a10.08,10.08,0,1,1,11.28-2.08l-.1.1a2.39,2.39,0,0,1,.23.22,6.11,6.11,0,0,1,.85,1L54.72,54.41a5.08,5.08,0,0,1,0-7.15l-9.55-9.55a5.05,5.05,0,0,1-7.14,0L11.46,64.28a5.08,5.08,0,0,1,0,7.15l7.34,7.35Zm22.54-3.4a10.48,10.48,0,0,1-1.22,1.42l-1.49,1.5,0,0a1.67,1.67,0,0,1,.32.24l1.43,1.44a1.83,1.83,0,0,1,.21.26,4.93,4.93,0,0,1,.26,6,1.46,1.46,0,0,1,.53.34l1.43,1.43a1.78,1.78,0,0,1,.21.27,5,5,0,0,1,0,6.35,1.19,1.19,0,0,1,.18.15l1.43,1.43a2.78,2.78,0,0,1,.21.27c3.33,4.55-.64,8.41-3.83,11.53l-.82.82-3.55,3.73-.12.11c-3.25,3-6.48,3.74-10.21,4.65l-2.13.53-.06,0a12.7,12.7,0,0,1-5.49.39A8.1,8.1,0,0,1,14.28,116L1.89,103.55A4.6,4.6,0,0,1,.55,99.08,11.82,11.82,0,0,1,3,94.39L6.26,75.62v-.08c0-.23.08-.49.13-.78L0,68.38,42.16,26.22,66.33,50.39l-25,25Z"/></svg>