<?xml version="1.0" encoding="utf-8"?><svg version="1.1" id="Layer_1" xmlns="http://www.w3.org/2000/svg" xmlns:xlink="http://www.w3.org/1999/xlink" x="0px" y="0px" viewBox="0 0 122.88 79.92" style="enable-background:new 0 0 122.88 79.92" xml:space="preserve"><style type="text/css">.st0{fill-rule:evenodd;clip-rule:evenodd;}</style><g><path class="st0" d="M76.29,31.83l-16.84,9.48l1.88-6.58c-7.78-4.07-14.85-4.04-21.61,0.83c4.55-12.69,15.16-16.41,25.35-13.96 l1.91-6.71L76.29,31.83L76.29,31.83L76.29,31.83L76.29,31.83z M3.06,0h89.63c1.69,0,3.06,1.38,3.06,3.06v15.13h-6.51V9.14 c0-1.49-1.22-2.71-2.71-2.71H9.22v0c-1.49,0-2.71,1.22-2.71,2.71v46.08c0,1.49,1.22,2.71,2.71,2.71h54.24v12.8H3.06 C1.38,70.73,0,69.35,0,67.67V3.06C0,1.38,1.38,0,3.06,0L3.06,0L3.06,0L3.06,0z M70.74,49.77l26-21.39l26.13,21.39H70.74 L70.74,49.77z M96.81,39.36c1.73,0,3.13,1.4,3.13,3.13c0,1.73-1.4,3.13-3.13,3.13c-1.73,0-3.13-1.4-3.13-3.13 C93.68,40.76,95.08,39.36,96.81,39.36L96.81,39.36z M72.33,79.92v-6.05h1.79l1.71-1.34V56.47h-3.49v-3.85h48.82v3.85h-3.48v16.06 l1.71,1.34h1.82v6.05H72.33L72.33,79.92z M83.95,73.87h1.97l1.71-1.34V56.47h-5.38v16.06L83.95,73.87L83.95,73.87L83.95,73.87z M95.76,73.87h1.97l1.7-1.34V56.47h-5.38v16.06L95.76,73.87L95.76,73.87L95.76,73.87z M107.57,73.87h1.97l1.71-1.34V56.47h-5.38 v16.06L107.57,73.87L107.57,73.87L107.57,73.87z M60.08,73.29c0.03,1.72,0.3,5.05,0.88,6.63H31.34c0.6-1.48,0.93-4.8,0.92-6.63 H60.08L60.08,73.29z M46.17,60.4c2.17,0,3.94,1.76,3.94,3.94c0,2.17-1.77,3.94-3.94,3.94c-2.17,0-3.94-1.76-3.94-3.94 C42.23,62.17,44,60.4,46.17,60.4L46.17,60.4z"/></g></svg>