<svg id="Layer_1" data-name="Layer 1" xmlns="http://www.w3.org/2000/svg" viewBox="0 0 118.16 122.88"><defs><style>.cls-1{fill-rule:evenodd;}</style></defs><title>shopper</title><path class="cls-1" d="M0,26.39l14.83,6.28L29,6.27,14.19,0,0,26.39ZM69.69,77.57V73.69H61V106h53.59V73.69h-8.81v4a4.22,4.22,0,1,1-5.6-.11V73.69H75.3v3.9a4.22,4.22,0,1,1-5.61,0Zm0-7.46V66.33c-1.39-.43-2.75-.92-4.07-1.47l-3.5-1.63a50.26,50.26,0,0,1-8.8-5.82l-13-3c-5.2-1.83-9.18-4.5-11.11-8.59a51.81,51.81,0,0,0-3.34-5.92c-2.68-4.07-.5-1.77-4.5-4.22L18.39,33.9c2.21-6,10.73-20.22,13.8-25.93l10.12,3.21a199.54,199.54,0,0,0,29,7.41c5,1.51,8.35,3.65,9.6,6.57l7.3,14.18a17.67,17.67,0,0,1,1.35,3.2,22.4,22.4,0,0,1,5.35,1.09c6.13,2.09,10.91,6.9,10.91,14.45v12h9.58a2.81,2.81,0,0,1,2,.82l.15.17a2.79,2.79,0,0,1,.67,1.82v39.86a10.12,10.12,0,0,1-10.09,10.1H67.5a10.12,10.12,0,0,1-10.09-10.1V72.92a2.8,2.8,0,0,1,2.81-2.81ZM72.8,48.87a15.84,15.84,0,0,1,4.58-3.82,31.56,31.56,0,0,1-6-6.94c-1.92-2.87-1-2.33-4.64-2.86-1.86-.27-3.71-.5-5.57-.67a15.58,15.58,0,0,0-3.54,3.28,18.16,18.16,0,0,0,2.65,3.46c3.15,3.24,6.09,4,10.14,6.2.8.44,1.6.89,2.39,1.35Zm27.37,21.24v-12c0-4.74-3.12-7.79-7.1-9.15a16.92,16.92,0,0,0-5.34-.85,16.53,16.53,0,0,0-5.33.85A11.31,11.31,0,0,0,77.53,52a25.62,25.62,0,0,1,3.67,3.43c5,6.45,1.94,12.86-5.9,12.14v2.51Z"/></svg>