<svg id="Layer_1" data-name="Layer 1" xmlns="http://www.w3.org/2000/svg" viewBox="0 0 122.88 70.7"><title>outlets</title><path d="M118,31.05V62.3a3.86,3.86,0,0,1-3.84,3.84H81.36V63h4.32V39.15a5.75,5.75,0,0,1,5.74-5.74h9.49a5.75,5.75,0,0,1,5.74,5.74V63h7.48a.67.67,0,0,0,.47-.2.65.65,0,0,0,.2-.47V31.14a13,13,0,0,0,3.17-.09ZM43.31,55.11a1.1,1.1,0,1,1-1.1,1.09,1.09,1.09,0,0,1,1.1-1.09ZM71.7,33.47V66.63a4.1,4.1,0,0,1-4.07,4.07H9.28a4.06,4.06,0,0,1-2.87-1.2h0a4.06,4.06,0,0,1-1.19-2.87V33.5a15.33,15.33,0,0,0,3.36.23v32.9a.67.67,0,0,0,.21.49h0a.69.69,0,0,0,.5.21H37.43V42.07A6.11,6.11,0,0,1,43.53,36H53.6a6.11,6.11,0,0,1,6.09,6.09V67.34h7.94a.7.7,0,0,0,.49-.22.69.69,0,0,0,.21-.49V33.57a14.61,14.61,0,0,0,3.37-.1ZM40.26,67.34h16.6V42.07a3.28,3.28,0,0,0-3.27-3.27H43.53a3.28,3.28,0,0,0-3.27,3.27V67.34ZM18.77,40.63H28.85a1.42,1.42,0,0,1,1.41,1.42V57a1.41,1.41,0,0,1-1.41,1.41H18.77A1.41,1.41,0,0,1,17.35,57v-15a1.42,1.42,0,0,1,1.42-1.42Zm8.66,2.84H20.18V55.61h7.26V43.47Zm39-13.91c-.78-.36-2.71-.87-3.32-1.47a7.56,7.56,0,0,1-1.33-1.8,7.8,7.8,0,0,1-1.32,1.8C59.09,29.43,56,30.26,54,30.26s-5.11-.83-6.44-2.17a7.56,7.56,0,0,1-1.33-1.8,7.56,7.56,0,0,1-1.33,1.8c-1.34,1.34-4.41,2.17-6.44,2.17s-5.1-.83-6.44-2.17a7.8,7.8,0,0,1-1.32-1.8,7.56,7.56,0,0,1-1.33,1.8C28,29.43,25,30.26,22.92,30.26s-5.1-.83-6.44-2.17a7.56,7.56,0,0,1-1.33-1.8,7.8,7.8,0,0,1-1.32,1.8c-.89.88-3.21,1.54-4.44,1.89-2.47.3-5.38-.05-7.22-1.89A7.37,7.37,0,0,1,0,22.87V20a1,1,0,0,1,.11-.46L5.31,2.88C5.74,1.5,6.78.62,8.81.52H67.69c1.82.2,3,1,3.49,2.34,1.36,4.05,5.12,13.49,5.72,17.06.08.81,0,2.09,0,2.95a7.41,7.41,0,0,1-2.17,5.22c-2.18,2.18-5.5,2.12-8.34,1.47ZM88.35,63H104V39.15a3.09,3.09,0,0,0-3.08-3.07H91.42a3.07,3.07,0,0,0-3.07,3.07V63ZM113,27.37c-.74-.35-2.56-.82-3.13-1.39a7,7,0,0,1-1.25-1.7,7,7,0,0,1-1.25,1.7c-1.26,1.26-4.16,2-6.07,2s-4.81-.78-6.07-2A7,7,0,0,1,94,24.28,7,7,0,0,1,92.71,26c-1.26,1.26-4.15,2-6.07,2h-.42a13.62,13.62,0,0,0,.4-3.27c0-7.75-3.54-14.51-6-21.94l-.12-.4A9.73,9.73,0,0,0,79.22,0h35a3.48,3.48,0,0,1,3.28,2.21l5.28,15.7a.81.81,0,0,1,.12.37h0v2.78a6.94,6.94,0,0,1-2,4.92c-2.06,2.06-5.18,2-7.86,1.39Z"/></svg>