<?xml version="1.0" encoding="utf-8"?><svg version="1.1" id="Layer_1" xmlns="http://www.w3.org/2000/svg" xmlns:xlink="http://www.w3.org/1999/xlink" x="0px" y="0px" viewBox="0 0 72.55 122.88" style="enable-background:new 0 0 72.55 122.88" xml:space="preserve"><style type="text/css"><![CDATA[
	.st0{fill:#E74040;}
	.st1{fill-rule:evenodd;clip-rule:evenodd;fill:#262626;}
]]></style><g><path class="st1" d="M59.07,0c3.72,0,7.07,1.52,9.52,3.95c2.44,2.44,3.95,5.81,3.95,9.52c0,31.99,0.01,63.95,0.01,95.93 c0,3.72-1.52,7.07-3.95,9.52c-2.44,2.44-5.81,3.95-9.52,3.95H13.47c-3.72,0-7.07-1.52-9.52-3.95C1.52,116.49,0,113.12,0,109.41 V13.47C0,9.75,1.52,6.4,3.95,3.95C6.48,1.43,9.9,0,13.47,0H59.07L59.07,0z M68.67,16.94H3.88v87.04h64.8 C68.69,74.96,68.67,45.97,68.67,16.94L68.67,16.94z M36.28,108.21c3.04,0,5.52,2.48,5.52,5.52c0,3.04-2.48,5.53-5.52,5.53 s-5.52-2.48-5.52-5.53C30.75,110.69,33.22,108.21,36.28,108.21L36.28,108.21L36.28,108.21L36.28,108.21L36.28,108.21z"/><path class="st0" d="M9.94,28.41h10.01c2.18,0,3.81,0.52,4.9,1.55c1.08,1.04,1.63,2.51,1.63,4.44c0,1.96-0.59,3.51-1.78,4.61 c-1.18,1.11-2.99,1.66-5.42,1.66h-3.3v7.2H9.94V28.41L9.94,28.41z M15.98,36.73h1.48c1.17,0,1.99-0.2,2.46-0.61 c0.47-0.4,0.71-0.92,0.71-1.55c0-0.62-0.2-1.13-0.62-1.56c-0.41-0.42-1.18-0.64-2.31-0.64h-1.72V36.73L15.98,36.73z M38.36,44.67 h-6.82l-0.97,3.21h-6.14l7.33-19.47h6.59l7.29,19.47h-6.3L38.36,44.67L38.36,44.67z M37.08,40.45l-2.12-7l-2.14,7H37.08 L37.08,40.45z M42.35,28.41h6.68l3.94,6.56l3.92-6.56h6.64l-7.56,11.32v8.15h-6.04v-8.15L42.35,28.41L42.35,28.41z"/><path class="st1" d="M36.9,66.53h0.2c1.54,0,2.8,1.26,2.8,2.8v18.04h1.81v-7.55c0-1.43,1.17-2.61,2.61-2.61h0.2 c1.54,0,2.8,1.26,2.8,2.8v7.55l0.09-0.03h1.97v-5.75c0-1.43,1.17-2.61,2.61-2.61h0.2c1.54,0,2.8,1.26,2.8,2.8v5.25l0.02,0.01 l1.95-0.01v-3.71c0-1.43,1.17-2.61,2.61-2.61h0.2c1.54,0,2.8,1.26,2.8,2.8v7.86c0,0.1,0,0.19-0.01,0.29l0.09,0.08 c0.17,5.07-0.18,12.32-4.34,15.95c-4.13,3.36-8.27,4.24-12.56,3.57c-5.86-0.92-8.9-4.1-11.68-9.13L23.08,84.93 c-0.57-1.34-0.5-2.26,0.08-2.84c2.47-1.61,6.51,1.8,10.98,6.63l0.16-0.04V69.13C34.29,67.7,35.47,66.53,36.9,66.53L36.9,66.53 L36.9,66.53z M38.6,58.99c0,0.76-0.62,1.38-1.38,1.38c-0.76,0-1.38-0.62-1.38-1.38l-0.01-5.56c0-0.76,0.62-1.38,1.38-1.38 c0.76,0,1.38,0.62,1.38,1.38L38.6,58.99L38.6,58.99L38.6,58.99z M26.05,70.38c0.76,0,1.38,0.62,1.38,1.38s-0.62,1.38-1.38,1.38 h-5.56c-0.76,0-1.38-0.62-1.38-1.38s0.62-1.38,1.38-1.38H26.05L26.05,70.38L26.05,70.38z M29.99,62.14c0.54,0.54,0.53,1.42,0,1.95 c-0.54,0.54-1.42,0.53-1.95,0l-3.93-3.93c-0.54-0.54-0.53-1.42,0-1.95c0.54-0.54,1.42-0.53,1.95,0.01L29.99,62.14L29.99,62.14 L29.99,62.14z M48.13,73.14c-0.76,0-1.38-0.62-1.38-1.38s0.62-1.38,1.38-1.38l5.55,0c0.76,0,1.38,0.62,1.38,1.38 s-0.62,1.38-1.38,1.38L48.13,73.14L48.13,73.14L48.13,73.14z M46.15,63.78c-0.54,0.54-1.41,0.54-1.95,0 c-0.54-0.54-0.54-1.41,0-1.95l3.93-3.93c0.54-0.54,1.41-0.54,1.95,0c0.54,0.54,0.54,1.41,0.01,1.95L46.15,63.78L46.15,63.78 L46.15,63.78z"/></g></svg>