<?xml version="1.0" encoding="utf-8"?><svg version="1.1" id="Layer_1" xmlns="http://www.w3.org/2000/svg" xmlns:xlink="http://www.w3.org/1999/xlink" x="0px" y="0px" viewBox="0 0 122.88 118.06" style="enable-background:new 0 0 122.88 118.06" xml:space="preserve"><style type="text/css">.st0{fill-rule:evenodd;clip-rule:evenodd;}</style><g><path class="st0" d="M9.42,65.68l13.24-2.58l28.93-43.65c-1.4-1.52-2.4-3.44-2.83-5.61c-0.61-3.14,0.11-6.23,1.77-8.7 c1.67-2.47,4.26-4.31,7.4-4.92c3.14-0.61,6.23,0.11,8.7,1.77c2.47,1.67,4.31,4.27,4.92,7.4c0.61,3.15-0.11,6.24-1.77,8.71 l-0.16,0.22c-0.11,0.15-0.22,0.3-0.33,0.44l24.53,30.46l9.45-1.85c6.29-1.23,12.45,2.92,13.67,9.21l5.71,29.27 c1.23,6.29-2.92,12.45-9.21,13.67L19.6,117.84c-6.29,1.23-12.45-2.92-13.67-9.21L0.22,79.36C-1.01,73.07,3.13,66.91,9.42,65.68 L9.42,65.68z M30.68,86.84L24,88.14l-0.9-4.61c-0.26-1.34-0.5-2.16-0.7-2.47c-0.2-0.3-0.55-0.41-1.03-0.32 c-0.54,0.11-0.85,0.37-0.91,0.81c-0.07,0.44,0.03,1.33,0.29,2.67l2.41,12.33c0.25,1.29,0.49,2.12,0.72,2.49 c0.22,0.36,0.59,0.49,1.1,0.4c0.49-0.1,0.78-0.35,0.85-0.78c0.07-0.42-0.03-1.37-0.32-2.83l-0.65-3.34l6.68-1.3l0.2,1.04 c0.54,2.75,0.73,4.74,0.58,5.96c-0.15,1.23-0.78,2.4-1.89,3.51c-1.12,1.12-2.61,1.86-4.49,2.22c-1.95,0.38-3.63,0.33-5.04-0.15 c-1.41-0.49-2.45-1.34-3.11-2.55c-0.66-1.22-1.25-3.13-1.76-5.73l-1.51-7.76c-0.37-1.91-0.59-3.36-0.65-4.34 c-0.06-0.98,0.14-1.98,0.6-2.99c0.45-1.01,1.19-1.88,2.2-2.6c1.01-0.73,2.24-1.23,3.69-1.51c1.96-0.38,3.66-0.31,5.09,0.23 c1.43,0.53,2.46,1.35,3.09,2.45c0.63,1.1,1.18,2.88,1.67,5.36L30.68,86.84L30.68,86.84z M37.48,73.48l4.15,21.26l4.02-0.78 l1.04,5.31l-10.7,2.09L30.8,74.79L37.48,73.48L37.48,73.48z M60.88,85.08c0.52,2.67,0.83,4.57,0.92,5.7 c0.1,1.14-0.08,2.22-0.54,3.27c-0.46,1.04-1.19,1.92-2.17,2.62c-0.99,0.7-2.21,1.2-3.65,1.48c-1.37,0.27-2.64,0.27-3.83,0.02 c-1.18-0.25-2.2-0.77-3.04-1.57c-0.85-0.8-1.44-1.74-1.78-2.8c-0.34-1.07-0.78-2.97-1.31-5.71l-0.89-4.55 c-0.52-2.67-0.83-4.57-0.92-5.7c-0.1-1.14,0.08-2.22,0.54-3.27c0.46-1.04,1.18-1.92,2.17-2.62c0.99-0.7,2.21-1.2,3.65-1.48 c1.37-0.27,2.64-0.27,3.83-0.02c1.18,0.25,2.2,0.77,3.04,1.57c0.85,0.8,1.44,1.74,1.78,2.8c0.34,1.07,0.78,2.97,1.31,5.71 L60.88,85.08L60.88,85.08z M52.5,77.66c-0.24-1.23-0.46-2.01-0.66-2.33c-0.2-0.32-0.49-0.44-0.89-0.36 c-0.34,0.07-0.57,0.26-0.7,0.57c-0.13,0.31-0.06,1.15,0.21,2.52l2.42,12.4c0.3,1.54,0.55,2.48,0.73,2.81 c0.19,0.34,0.5,0.47,0.93,0.38c0.44-0.09,0.69-0.35,0.73-0.79c0.04-0.44-0.09-1.44-0.4-3L52.5,77.66L52.5,77.66z M76.02,74.33 l-6.19,1.21l-0.38-1.96c-0.18-0.92-0.37-1.49-0.58-1.71c-0.21-0.22-0.49-0.29-0.86-0.22c-0.4,0.08-0.67,0.31-0.81,0.69 c-0.14,0.38-0.14,0.91-0.01,1.59c0.17,0.88,0.42,1.53,0.74,1.93c0.31,0.4,1.05,0.82,2.2,1.26c3.31,1.25,5.47,2.4,6.47,3.42 c1,1.02,1.75,2.83,2.26,5.43c0.37,1.89,0.43,3.33,0.17,4.31c-0.25,0.98-0.93,1.89-2.04,2.73c-1.1,0.85-2.46,1.43-4.09,1.75 c-1.78,0.35-3.37,0.29-4.77-0.16c-1.4-0.45-2.39-1.18-3-2.19c-0.6-1.01-1.1-2.51-1.48-4.5l-0.34-1.74l6.19-1.21l0.63,3.23 c0.19,1,0.41,1.62,0.63,1.87c0.23,0.25,0.56,0.33,1.01,0.24c0.44-0.09,0.74-0.33,0.88-0.74c0.15-0.4,0.15-0.96,0.01-1.66 c-0.3-1.56-0.71-2.55-1.21-2.94c-0.52-0.4-1.72-1-3.59-1.81c-1.87-0.81-3.13-1.43-3.77-1.84c-0.64-0.41-1.22-1.03-1.75-1.87 c-0.53-0.84-0.93-1.96-1.21-3.37c-0.4-2.03-0.44-3.57-0.12-4.61c0.32-1.04,0.98-1.93,2-2.68c1.01-0.75,2.31-1.28,3.89-1.58 c1.73-0.34,3.26-0.33,4.59,0.01c1.33,0.34,2.28,0.92,2.84,1.72c0.57,0.8,1.06,2.26,1.47,4.37L76.02,74.33L76.02,74.33z M77.11,65.75l11.12-2.17l1.04,5.31l-4.44,0.87l0.99,5.07l4.15-0.81l0.98,5.04l-4.15,0.81l1.14,5.84l4.89-0.96l1.04,5.31 L82.3,92.31L77.11,65.75L77.11,65.75z M90.58,63.12l4.99-0.97c3.21-0.63,5.42-0.9,6.62-0.81c1.19,0.09,2.16,0.42,2.88,1.01 c0.73,0.58,1.25,1.29,1.56,2.12c0.31,0.83,0.72,2.5,1.21,5.02l1.82,9.3c0.47,2.38,0.67,4,0.61,4.84c-0.06,0.85-0.31,1.55-0.76,2.11 c-0.45,0.56-1.06,1-1.81,1.34c-0.75,0.33-1.93,0.66-3.52,0.97l-8.4,1.64L90.58,63.12L90.58,63.12z M98.14,66.35l3.41,17.5 c0.95-0.18,1.49-0.5,1.63-0.94c0.14-0.45,0.04-1.55-0.31-3.33l-2.02-10.33c-0.24-1.2-0.42-1.97-0.56-2.3 c-0.14-0.33-0.35-0.54-0.65-0.65C99.36,66.19,98.86,66.21,98.14,66.35L98.14,66.35z M32.09,61.26L86.23,50.7L63.67,22.68 c-0.42,0.13-0.85,0.24-1.29,0.33c-1.67,0.33-3.32,0.27-4.88-0.09L32.09,61.26L32.09,61.26z M57.73,15.71 c0.06,0.03,0.13,0.07,0.19,0.11c0.93,0.49,2.03,0.68,3.15,0.46c1.24-0.24,2.26-0.93,2.94-1.87l0.1-0.15 c0.68-1.01,0.97-2.28,0.72-3.57c-0.25-1.3-1-2.36-2-3.04c-1.01-0.68-2.29-0.98-3.58-0.72c-1.3,0.25-2.36,1-3.04,2 c-0.68,1.01-0.98,2.29-0.72,3.58c0.25,1.29,1,2.36,2.02,3.04l0,0.01C57.57,15.62,57.65,15.67,57.73,15.71L57.73,15.71z"/></g></svg>