<?xml version="1.0" encoding="utf-8"?><svg version="1.1" id="Layer_1" xmlns="http://www.w3.org/2000/svg" xmlns:xlink="http://www.w3.org/1999/xlink" x="0px" y="0px" viewBox="0 0 122.88 113.01" style="enable-background:new 0 0 122.88 113.01" xml:space="preserve"><style type="text/css">.st0{fill-rule:evenodd;clip-rule:evenodd;fill:#D8453E;} .st1{fill:#393939;}</style><g><path class="st0" d="M27.13,51.91c0.29,1.51,1.08,2.48,2.15,2.97c0.87,0.4,1.87,0.44,2.92,0.17c0.91-0.24,1.87-0.73,2.79-1.43 c2.49-1.89,4.82-5.46,5.11-9.92c0.09-1.37,0.06-2.84-0.06-4.39c-0.08-1.03-0.22-2.11-0.4-3.23H50.2l0.05-0.01 c1.72-0.06,3.38-0.49,4.79-1.22c1.22-0.64,2.24-1.5,2.95-2.59c0.73-1.11,1.13-2.44,1.07-3.95c-0.05-1.12-0.34-2.34-0.96-3.65 c0.35-1.46,0.52-3.03,0.29-4.41c-0.19-1.17-0.64-2.21-1.46-2.98c0.05-1.93-0.21-3.55-0.74-4.96c-0.53-1.45-1.34-2.64-2.37-3.7 c-0.09-0.93-0.24-1.81-0.47-2.64c-0.29-1.04-0.72-2-1.32-2.84l0,0c-1.8-2.54-3.24-2.49-5.52-2.39c-0.31,0.01-0.66,0.03-1.19,0.03 H24.63c-1.86,0-3.32,0.27-4.66,0.94c-1.33,0.66-2.45,1.68-3.66,3.19L16,5.76V29.9l1.05,0.29c2.67,0.72,4.77,3,6.4,5.73 c1.68,2.81,2.85,6.1,3.66,8.75v6.98L27.13,51.91L27.13,51.91L27.13,51.91L27.13,51.91z"/><path class="st1" d="M69.06,12.79c10.74,0,20.12,0.09,30.86,0.09c1.23,0,2.4,0.11,3.54,0.32c1.13,0.22,2.22,0.53,3.23,0.96 c1.02,0.43,2.01,0.97,2.96,1.61c0.94,0.64,1.83,1.38,2.68,2.22c0.84,0.84,1.59,1.75,2.22,2.68c0.65,0.95,1.19,1.94,1.61,2.96 c0.42,1.02,0.75,2.1,0.96,3.23c0.22,1.14,0.32,2.31,0.32,3.54v35.55c0,1.23-0.11,2.4-0.32,3.54c-0.22,1.14-0.54,2.22-0.96,3.23 c-0.43,1.03-0.97,2.02-1.61,2.96c-0.64,0.94-1.38,1.83-2.22,2.68l-0.01,0.01c-0.87,0.85-1.79,1.6-2.73,2.23 c-0.94,0.64-1.93,1.17-2.95,1.6c-1.02,0.42-2.09,0.75-3.22,0.96c-1.12,0.22-2.3,0.32-3.51,0.32H86.49c-0.42,0-0.83,0.1-1.22,0.28 c-0.35,0.18-0.68,0.43-0.92,0.76l-0.02,0.02c-1.06,1.4-2.17,2.77-3.34,4.08c-1.17,1.3-2.38,2.57-3.69,3.77 c-1.27,1.18-2.6,2.3-3.98,3.39c-1.38,1.09-2.82,2.11-4.28,3.07c-1.4,0.92-2.88,1.81-4.42,2.64c-1.52,0.82-3.08,1.59-4.67,2.3 c-0.18,0.08-0.37,0.07-0.55-0.03c-0.29-0.17-0.4-0.55-0.24-0.84c0.28-0.5,0.56-1,0.83-1.53c0.26-0.49,0.5-0.99,0.74-1.52l0,0 c0.45-1.01,0.88-2.04,1.29-3.1c0.42-1.07,0.81-2.14,1.2-3.25c0.36-1.03,0.7-2.1,1.02-3.18c0.32-1.08,0.63-2.17,0.92-3.26 c0.08-0.32,0.16-0.65,0.16-0.98c0-0.73-0.29-1.4-0.77-1.88l-0.03-0.03c-0.49-0.49-1.18-0.8-1.91-0.8h-15.6 c-1.23,0-2.39-0.11-3.51-0.32c-1.11-0.22-2.17-0.53-3.18-0.95l-0.02-0.01c-1-0.39-1.97-0.92-2.9-1.55 c-0.96-0.65-1.89-1.42-2.79-2.29l-0.01-0.01c-0.84-0.84-1.59-1.74-2.23-2.68c-0.65-0.95-1.18-1.93-1.61-2.96 c-0.42-1.02-0.75-2.1-0.96-3.23c-0.22-1.14-0.32-2.32-0.32-3.54v-1.17c0-3.63-4.7-3.66-5.48-1.07v2.19c0,1.55,0.15,3.06,0.42,4.51 c0.28,1.48,0.71,2.91,1.27,4.31c0.55,1.34,1.25,2.64,2.09,3.88c0.84,1.24,1.82,2.42,2.94,3.54c1.11,1.12,2.3,2.1,3.54,2.94 c1.23,0.83,2.52,1.53,3.86,2.08l0.02,0.01c1.38,0.56,2.82,0.98,4.3,1.27c1.45,0.27,2.96,0.42,4.51,0.42h11.21 c0.07,0,0.15,0.01,0.22,0.03c0.32,0.11,0.5,0.45,0.4,0.77l-0.01,0.02c-0.22,0.69-0.43,1.37-0.68,2.11l-0.01,0.04 c-0.34,0.99-0.73,2-1.13,3.01c-0.38,0.95-0.78,1.89-1.19,2.8c-0.01,0.05-0.02,0.09-0.04,0.14c-0.4,0.91-0.86,1.81-1.4,2.71 c-0.53,0.89-1.13,1.77-1.78,2.63c-0.67,0.86-1.41,1.74-2.24,2.62l-0.03,0.04c-0.83,0.88-1.74,1.76-2.71,2.6 c-0.56,0.5-0.86,1.19-0.9,1.87c-0.04,0.69,0.19,1.39,0.69,1.95c0.35,0.39,0.78,0.66,1.26,0.79c0.47,0.14,0.98,0.16,1.46,0.02 c2.04-0.55,4.04-1.15,5.98-1.81c1.94-0.67,3.83-1.39,5.63-2.18c1.82-0.78,3.61-1.65,5.34-2.58c1.72-0.92,3.38-1.92,4.99-2.98l0,0 c1.6-1.04,3.15-2.15,4.65-3.33c1.5-1.18,2.94-2.41,4.33-3.7l0.03-0.03c1.17-1.1,2.3-2.26,3.39-3.45c1.11-1.22,2.18-2.47,3.18-3.75 c0.11-0.17,0.3-0.28,0.52-0.28h11.79c1.58,0,3.09-0.15,4.55-0.42c1.47-0.28,2.88-0.71,4.24-1.26l0.02-0.01 c1.36-0.58,2.66-1.28,3.9-2.12c1.24-0.83,2.41-1.79,3.53-2.91c1.12-1.12,2.1-2.31,2.94-3.54c0.83-1.24,1.54-2.54,2.09-3.88 c0.56-1.36,0.98-2.79,1.27-4.27c0.27-1.45,0.42-2.97,0.42-4.55V30.31c0-1.58-0.15-3.1-0.42-4.55c-0.28-1.48-0.71-2.9-1.27-4.26 c-0.55-1.34-1.26-2.65-2.09-3.88c-0.84-1.25-1.82-2.43-2.93-3.54c-1.12-1.12-2.3-2.1-3.54-2.94c-1.23-0.83-2.52-1.53-3.86-2.08 l-0.02-0.01c-1.39-0.56-2.83-0.98-4.31-1.27c-1.45-0.27-2.96-0.42-4.51-0.42c-11.16,0-20.96-0.05-32.12-0.05 C65.15,8.09,64.97,12.79,69.06,12.79L69.06,12.79L69.06,12.79z M53.16,67.57c-1.42,0.02-2.58-1.12-2.6-2.54 c-0.02-1.42,1.12-2.58,2.54-2.6l27.25-0.41l5.22-0.33c1.42-0.09,2.64,0.99,2.73,2.4c0.09,1.42-0.99,2.64-2.4,2.73l-5.22,0.33 C80.67,67.14,55.46,67.53,53.16,67.57L53.16,67.57L53.16,67.57z M61.32,51.42c-1.42,0-2.58-1.16-2.58-2.58s1.16-2.58,2.58-2.58 h36.8c1.42,0,2.58,1.16,2.58,2.58s-1.16,2.58-2.58,2.58H61.32L61.32,51.42L61.32,51.42z M72.78,36.02c-1.42,0-2.58-1.16-2.58-2.58 c0-1.42,1.16-2.58,2.58-2.58h25.35c1.42,0,2.58,1.16,2.58,2.58c0,1.42-1.16,2.58-2.58,2.58H72.78L72.78,36.02L72.78,36.02z"/><path class="st0" d="M2.12,32.42h9.35c1.17,0,2.12-0.96,2.12-2.12V2.12c0-1.17-0.96-2.12-2.12-2.12H2.12C0.95,0,0,0.96,0,2.12V30.3 C0,31.47,0.95,32.42,2.12,32.42L2.12,32.42L2.12,32.42L2.12,32.42z"/></g></svg>